<?xml version="1.0" encoding="UTF-8"?>
<svg id="Capa_2" data-name="Capa 2" xmlns="http://www.w3.org/2000/svg" viewBox="0 0 588.18 593.06">
  <defs>
    <style>
      .cls-1, .cls-2 {
        stroke-width: 0px;
      }

      .cls-2 {
        fill: #d7ff99;
      }
    </style>
  </defs>
  <g id="Capa_1-2" data-name="Capa 1">
    <g>
      <path class="cls-2" d="m286.75,110.72c-3.66,0-6.54.16-9.4-.05-2.62-.19-5.57.9-7.71-1.82-.35-.45-1.57-.29-2.39-.31-3.71-.09-7.43-.07-11.14-.26-2.34-.12-4.88.59-6.77-1.87-.53-.69-2.33-.46-3.55-.55-3.8-.26-8.01.49-11.29-.94-4.22-1.84-8.35-1.53-12.55-1.89-1.54-.13-3.34.3-4.58-.36-3.87-2.03-8.4-1.06-12.05-2.62-3.09-1.32-6.66-1.02-9.09-2.59-2.98-1.93-6.05-1.58-8.98-2.5-2.8-.89-5.23-2.86-7.92-4.16-2.4-1.17-5.25-1.65-7.32-3.21-3.17-2.38-7.51-3.14-9.7-6.89-.2-.35-.82-.58-1.27-.64-2.88-.39-4.37-2.5-6.11-4.5-1.84-2.11-4.14-3.81-6.14-5.79-1.48-1.47-2.77-3.13-4.21-4.63-.74-.78-1.64-1.41-2.48-2.09-3.08-2.47-3.17-7.18-7.07-9.16-1.19-.61-1.91-2.33-2.61-3.67-1.31-2.5-2.37-5.13-3.68-7.63-.6-1.15-1.32-2.48-2.36-3.1-2.63-1.56-1.24-5.58-4.36-6.69-.08-.03-.14-.15-.17-.25-.99-3.08-1.65-6.32-3.07-9.19-1.38-2.79-1.53-6.22-4.3-8.36-.58-.45-.46-1.73-.8-2.57-.64-1.59-1.56-3.1-2.04-4.73-.45-1.52-.5-3.15-.63-4.07,4.81-5.61,10.65-2.9,15.92-3.35,2.06-.18,4.28-.5,5.95,1.58.41.52,1.75.38,2.66.39,7.12.13,14.24.15,21.35.39,1.25.04,2.46,1,3.71,1.45.93.33,1.9.63,2.88.76,3.54.47,7.48-.81,10.39,2.42.06.06.2.05.3.07,5.31.99,10.63,1.92,15.92,3.01,1.37.28,2.61,1.14,3.93,1.67.74.3,1.51.6,2.3.69,2.35.27,4.9-.36,6.61,2.2.38.57,1.94.32,2.94.5,1.41.24,3.26-.37,3.67,1.87.03.15.3.39.42.37,3.52-.54,6.15,1.73,9.09,2.94,2.93,1.2,5.72,2.74,8.57,4.14.18.09.29.31.47.38,2.79,1.12,6.6,1.47,8.11,3.52,1.91,2.58,5.35,1.34,6.91,4.32.87,1.66,3.8,2.19,5.72,3.36,1.1.67,2.18,1.49,3.03,2.45,2.6,2.92,6.78,3.6,9.2,7.03,1.65,2.34,4.72,3.63,6.85,5.71,2.13,2.08,3.87,4.57,5.83,6.84.76.88,1.73,1.57,2.45,2.47,1.52,1.94,2.98,3.94,4.39,5.96,1.34,1.93,2.62,3.89,3.86,5.89.86,1.39,1.72,2.8,2.38,4.29.96,2.14,1.57,4.46,2.69,6.5.76,1.39,2.13,2.44,3.76,4.21.26-.6.62-1.05.64-1.51.19-5.13,3.11-9.17,5.86-13.01,1.89-2.65,3.98-4.95,5.36-8.07,1.03-2.34,3.93-3.9,6.09-5.7,3.01-2.5,5.94-5.16,9.24-7.23,1.46-.92,3.73-.58,5.63-.8,3.68-.43,5,2.51,7.29,4.48,2.24,1.93.88,5.8,4.37,6.54.27.06.15,1.38.44,1.99.45.94,1.1,1.78,1.69,2.64.1.15.46.18.49.32.89,4.13,4.35,7.65,2.9,12.31-.26.83-.63,2.08-1.24,2.29-5.43,1.84-8.37,6.44-11.97,10.34-1.15,1.25-2.72,2.11-4.07,3.19-.28.23-.59.61-.62.93-.22,3.27-2.45,5.33-4.44,7.54-.13.15-.27.33-.33.51-.99,3.5-1.9,7.02-2.97,10.49-.42,1.35-1.23,2.56-1.81,3.87-.28.63-.53,1.32-.59,2-.21,2.46-.45,4.93-.44,7.4,0,1.08.54,3.05.93,3.08,1.42.09,2.91-.37,4.31-.83.99-.32,1.83-1.18,2.83-1.41,1.98-.46,3.99,0,5.7-2.13.85-1.05,3.69-.47,5.62-.7,1.61-.19,3.54.55,4.45-1.78.18-.45,1.68-.41,2.59-.55,2.98-.47,6.37.9,8.81-2.06.28-.34,1.18-.21,1.79-.24,3.29-.18,6.89.46,9.83-.65,9.33-3.51,19.19-1.16,28.47-3.1,9.84-2.05,19.59-1.6,29.36-1.26,7.41.26,14.96.9,22.09,2.76,3.76.98,7.4,1.78,11.23,2.05.48.03,1.28.19,1.37.47.75,2.35,2.73,1.66,4.37,1.94,2.32.39,5.2-.94,6.73,2.18.17.35,1.36.18,2.07.29,2.03.33,4.63-.82,5.69,2.15.04.12.36.15.56.2,3.72,1.01,7.71,1.49,11.09,3.17,2.84,1.41,6.16,1.81,8.6,4.41,1.5,1.6,4.72,1.6,6.23,3.2,1.89,2.02,5.37,1.28,6.46,4.27.12.32.82.41,1.24.63,2.07,1.1,4.2,2.09,6.17,3.35,2.2,1.41,4.3,2.99,6.33,4.63,1.53,1.23,2.87,2.68,4.31,4.03,1.14,1.07,2.33,2.09,3.43,3.2,2.45,2.48,4.78,5.09,7.31,7.48,2.15,2.03,4.64,3.69,6.74,5.76,2.05,2.02,3.94,4.26,5.65,6.58,1.96,2.67,3.24,5.96,5.56,8.22,2.35,2.28,3.75,4.69,5.07,7.64,1.5,3.35,4.53,5.99,6.58,9.14,1.38,2.12,2.54,4.51,3.22,6.94.86,3.07,3.1,5.45,3.32,9,.17,2.75,2.61,5.34,3.97,8.05.31.62.34,1.4.44,2.11.25,1.81-.46,4.01,2.02,4.92.13.05.17.35.22.55,1.09,4.56,1.53,9.4,3.41,13.61,2.49,5.57.71,11.89,2.96,16.85,2.66,5.86,1.14,11.54,2.15,17.2.2,1.11.82,2.15,1.23,3.23.28.74.78,1.49.78,2.23.03,9.39.47,18.81-.3,28.13-.25,3.03-1.88,6.16-1.84,9.54.07,5.36-.06,10.73-.21,16.09-.06,2.06.49,4.37-1.89,5.79-.4.24-.29,1.33-.41,2.03-.66,3.94.51,8.07-2.15,11.85-1.06,1.5-.19,4.25-.58,6.37-.33,1.8-1.26,3.48-1.86,5.23-.26.76-.39,1.56-.53,2.35-.38,2.14.03,4.5-2.21,6.07-.56.39-.53,1.71-.64,2.62-.32,2.56.33,5.31-2.19,7.35-.62.5-.13,2.21-.46,3.27-.42,1.35-1.26,2.57-1.7,3.92-.42,1.31-.58,2.7-.82,4.06-.26,1.5.54,3.46-1.84,3.99-.15.03-.31.29-.37.47-.91,3.04-1.74,6.11-2.74,9.12-.4,1.19-1.2,2.24-1.83,3.36-.14.26-.37.48-.47.75-1.15,3.26-1.61,7.04-3.6,9.65-1.91,2.51-1,6.31-4.21,7.98-.31.16-.07,1.21-.31,1.74-.49,1.08-1.13,2.08-1.73,3.11-.09.16-.39.22-.45.38-.99,2.46-1.86,4.96-2.95,7.37-1.06,2.34-2.22,4.66-3.55,6.86-.91,1.52-2.81,2.69-3.15,4.25-.67,3.08-3.79,4.68-4.02,8.14-.14,2.04-2.37,3.91-3.61,5.89-1.33,2.13-2.57,4.3-3.89,6.43-.87,1.39-1.52,3.4-2.78,3.95-2.73,1.18-1.35,4.84-4.44,6-1.55.59-2.09,3.75-3.19,5.68-.67,1.18-1.51,2.26-2.33,3.34-1.54,2.03-3.17,3.99-4.66,6.04-1.1,1.51-1.95,3.21-3.07,4.7-2.04,2.71-4.14,5.37-6.34,7.95-1.06,1.24-2.6,2.09-3.55,3.38-1.35,1.84-2.29,3.98-3.51,5.92-.78,1.24-1.65,2.46-2.66,3.53-3.2,3.42-6.38,6.87-9.77,10.1-2.24,2.14-4.95,3.8-7.2,5.94-2.16,2.05-3.99,4.44-5.99,6.65-.25.27-.61.6-.94.61-3.16.16-4.39,2.94-6.45,4.61-2.51,2.03-5.32,3.69-7.75,5.79-2.44,2.1-6.39,1.67-8.05,4.98-.11.22-.81.07-1.16.26-2.38,1.28-4.74,2.59-7.1,3.91-.35.19-.6.59-.96.72-3.16,1.17-6.38,2.16-9.47,3.47-2.51,1.06-4.87,2.49-7.3,3.76-.27.14-.48.43-.75.5-4.17,1.07-8.33,2.19-12.54,3.11-1.88.41-3.95-.34-5.42,1.89-.48.73-2.5.43-3.81.64-2.98.48-6.39-1.01-8.85,2.1-.4.51-1.77.32-2.69.32-12.79-.02-25.58-.06-38.37-.1-.41,0-1,.1-1.2-.12-3.23-3.57-7.57-1.45-11.31-2.32-1.65-.38-3.16-1.37-4.81-1.81-1.45-.38-3.05-.21-4.49-.6-1.19-.32-2.27-1.11-3.38-1.71-.33-.18-.6-.59-.93-.63-2.82-.36-5.43-.45-8.13-2.3-2.82-1.93-7.34-1.48-9.97-3.54-2.18-1.71-5.77-1.01-6.84-4.25-.1-.29-.9-.52-1.34-.48-3.25.32-7.13-2.14-9.53,2.09-.04.07-.19.07-.29.1-3.12,1.08-6.31,2.01-9.33,3.3-2.73,1.17-5.27,2.78-7.93,4.12-.7.35-1.54.45-2.33.62-2.13.45-4.46-.49-6.24,2.11-.7,1.02-3.69.41-5.62.64-1.53.18-3.35-.44-4.23,1.67-.17.4-1.25.52-1.93.57-2.05.16-4.15.05-6.17.39-1.48.25-2.85,1.11-4.31,1.58-1.05.33-2.16.65-3.24.65-11.66.01-23.31,0-34.96-.14-1.11-.01-2.2-.99-3.33-1.44-.73-.29-1.51-.56-2.28-.59-2.99-.14-5.98-.12-8.97-.3-1.62-.09-3.4.43-4.52-1.73-.35-.68-2.49-.36-3.77-.65-2.2-.5-5.13,1.1-6.41-2.17-.05-.13-.36-.16-.56-.22-3.41-.98-7.38-1.19-10.08-3.14-3.07-2.22-7.52-.89-9.74-4.47-.16-.26-.73-.36-1.11-.37-3.23-.07-4.98-2.47-7.04-4.39-.07-.07-.11-.22-.18-.23-2.17-.43-4.03-2.24-5.69-2.63-2.76-.66-3.9-3.15-6.35-3.82-1.05-.28-1.95-1.21-2.85-1.92-1.72-1.35-3.4-2.76-5.1-4.14-.35-.29-.68-.84-1.04-.86-3.14-.17-4.6-2.44-6.4-4.57-1.83-2.17-4.27-3.81-6.35-5.78-1.48-1.41-2.8-2.99-4.2-4.48-.91-.96-1.82-1.94-2.79-2.84-3.07-2.86-6.32-5.54-9.21-8.57-1.5-1.58-2.33-3.78-3.58-5.63-.95-1.42-2.02-2.77-3.13-4.07-2.59-3.06-6.39-5.11-7.41-9.49-.28-1.2-1.34-2.53-2.42-3.19-3.95-2.39-5.33-6.6-7.73-10.11-2.12-3.09-4.9-5.75-6.82-8.95-1.06-1.77-1.58-3.76-3.14-5.42-1.68-1.79-2.62-4.28-3.94-6.43-1.38-2.25-2.8-4.48-4.23-6.7-1.47-2.29-3.06-4.5-4.42-6.85-1.17-2.02-2-4.22-3.12-6.27-1.26-2.28-2.68-4.48-4.05-6.7-.09-.15-.42-.18-.49-.33-1.12-2.62-2.09-5.31-3.35-7.86-1.28-2.58-2.84-5.02-4.25-7.53-.24-.43-.4-.91-.52-1.39-.36-1.47.23-3.44-2.11-3.83-.13-.02-.33-.36-.29-.5,1.05-4.01-2.31-6.7-3.11-10.2-.77-3.33-2.73-6.39-4.16-9.57-.2-.45-.37-.92-.57-1.38-.71-1.7-1.54-3.36-2.1-5.1-1.15-3.57-2.2-7.17-3.2-10.78-.59-2.11.73-4.91-2.32-6.13-.23-.09-.14-.96-.22-1.46-.4-2.46.72-5.41-2.28-7.03-.06-.03-.06-.19-.08-.29-.95-4.58-1.84-9.18-2.88-13.73-.48-2.1-1.44-4.1-1.89-6.2-.45-2.1-.61-4.27-.76-6.41-.24-3.4.59-6.97-1.9-9.96-.35-.42-.38-1.18-.43-1.78-.6-7.6-.82-15.17-2.06-22.79-1.32-8.12-1.3-16.85.22-24.93,1.58-8.41.95-16.72,1.72-25.04.13-1.41,1.09-2.73,1.51-4.13.37-1.25.58-2.55.78-3.84.52-3.33.09-6.61,2.16-9.93,1.97-3.15,2.21-7.39,3.17-11.16.54-2.12-.66-4.88,2.36-6.11.27-.11.03-1.2.25-1.76.54-1.41,1.2-2.77,1.82-4.14.13-.28.31-.54.4-.82.99-3.21,1.74-6.5,3.01-9.6,1.05-2.58,2.72-4.9,4.08-7.36,1.07-1.94,2.73-3.82,2.99-5.88.39-3.09,3.74-4.49,3.54-7.99-.1-1.67,2.3-3.39,3.27-5.24,1.93-3.72,6.37-5.62,7.16-10.22.18-1.03,1.53-1.88,2.39-2.78,5.01-5.25,9.96-10.57,15.1-15.69,2.2-2.19,5.19-3.66,7.12-6.03,2.87-3.51,7.01-4.99,10.42-7.58,2.98-2.27,5.66-4.96,8.71-7.13,1.83-1.3,4.13-1.91,6.17-2.94,3.03-1.53,5.99-3.23,9.03-4.74,2.07-1.03,4.18-2.09,6.39-2.7,1.83-.5,3.33-1.37,4.97-2.21,3.37-1.72,7.33-2.28,11.01-3.44,1.16-.36,2.19-1.11,3.28-1.7.26-.14.46-.44.73-.5,4.51-.93,9.01-1.93,13.55-2.69,2.67-.45,5.44.15,7.86-1.92.99-.85,2.96-.67,4.49-.76,3.81-.22,7.78.31,11.41-.6,11.58-2.89,23.28-1.01,34.9-1.43,2.63-.09,5.29,1.25,7.97,1.49,4.1.38,8.26.16,12.35.6,2.66.29,5.2,1.49,7.85,1.93,2.73.45,5.53.46,8.29.69,1.87.15,3.67-.15,5.28,1.69.81.92,3.09.53,4.71.77,2.49.37,5.2-.7,7.3,2.12.72.96,3.52.34,5.36.51,1.76.16,3.85-.43,4.73,1.94.05.15.3.28.48.32,4.24.97,8.49,1.87,12.71,2.92,1.69.42,3.26,1.31,4.94,1.75,1.35.36,2.9.75,4.16.39.6-.17.94-2.01,1.03-3.13.18-2.36-.08-4.76.21-7.11.21-1.73,1.17-3.37,1.5-5.1.44-2.27.59-4.6.95-7.65ZM44.25,275.18c-.09,0-.18,0-.27,0,.13,2.77-.28,5.72.57,8.25.76,2.29,2.95,4.09,4.43,6.16,1.93,2.71,4.29,4.55,7.82,4.4,1.75-.07,3.51.01,5.26-.05.79-.03,1.7-.05,2.34-.43,2.48-1.48,4.76-3.37,7.35-4.59,2.86-1.35,4.78-3.22,6.35-6,2.03-3.59,4.44-6.77,5.7-10.95.67-2.21,1.27-4.44,1.68-6.75.85-4.79,1.81-9.57,2.73-14.35.04-.2.08-.49.22-.56,3.81-1.98.98-6.85,4.36-9.49,1.97-1.54,2.17-5.22,3.48-7.77,1.43-2.79,3.28-5.37,4.85-8.09,1.01-1.75,1.42-4.15,2.86-5.27,2.49-1.93,4.14-4.12,5.24-7.01.5-1.31,1.61-2.45,2.6-3.51,2.16-2.29,4.41-4.5,6.67-6.68.85-.82,2.68-1.55,2.64-2.22-.2-2.83,2.15-3.8,3.49-5.41,1.89-2.27,3.93-4.47,6.17-6.39,2.65-2.26,6.3-3.67,8.22-6.37,3.08-4.33,8.3-5.52,11.67-9.3,1.36-1.53,4.09-1.77,5.69-3.17,2.48-2.18,5.08-3.87,7.98-5.45,1.8-.98,3.79-1.46,5.46-2.52,3.01-1.9,5.99-3.79,9.5-4.65.47-.11.91-.6,1.2-1.03.09-.14-.35-.93-.55-.92-3.07.01-6.66-.83-9.04.49-1.81,1-3.38,1.27-5.18,1.6-4.82.86-9.67-.72-14.67,2.12-3.21,1.82-8.02,1.16-11.96,2.99-3.44,1.6-7.56,1.76-10.98,3.4-1.84.88-3.4,2.23-5.59,2.29-.3,0-.57.46-.88.68-.78.54-1.52,1.16-2.37,1.57-.63.3-1.5.15-2.07.51-2.19,1.43-4.32,2.96-6.45,4.49-1.11.79-2.06,2.05-3.28,2.4-3.01.86-5.27,2.39-7.03,5.04-.82,1.23-2.3,2.5-3.69,2.79-4.17.88-5.69,4.73-8.53,7.05-2.26,1.85-4.19,4.12-6.25,6.21-1.4,1.42-2.88,2.77-4.12,4.32-2.17,2.7-4.16,5.54-6.25,8.3-1.35,1.79-2.91,3.44-4.08,5.34-1.33,2.16-2.26,4.56-3.51,6.77-.69,1.23-1.46,2.75-2.6,3.32-2.91,1.46-1.96,4.89-4.14,6.95-1.85,1.75-2.09,5.2-3.06,7.89-.07.18-.2.44-.35.48-2.34.61-1.71,2.68-2.17,4.25-.99,3.41-2.16,6.82-3.28,10.12-.83,2.44-1.5,4.84-1.91,7.36-.09.57-.33,1.13-.57,1.67-.56,1.29-1.45,2.51-1.65,3.85-.29,1.92-.07,3.91-.07,5.87Z"/>
      <path class="cls-1" d="m44.25,275.18c0-1.96-.21-3.95.07-5.87.2-1.33,1.1-2.56,1.65-3.85.23-.54.47-1.1.57-1.67.41-2.52,1.07-4.92,1.91-7.36,1.12-3.29,2.29-6.71,3.28-10.12.46-1.57-.17-3.64,2.17-4.25.15-.04.28-.3.35-.48.97-2.69,1.21-6.14,3.06-7.89,2.18-2.06,1.24-5.5,4.14-6.95,1.14-.57,1.91-2.09,2.6-3.32,1.25-2.21,2.18-4.61,3.51-6.77,1.17-1.9,2.72-3.55,4.08-5.34,2.09-2.76,4.08-5.6,6.25-8.3,1.24-1.55,2.73-2.9,4.12-4.32,2.06-2.1,3.99-4.36,6.25-6.21,2.84-2.33,4.35-6.17,8.53-7.05,1.39-.29,2.87-1.56,3.69-2.79,1.75-2.64,4.02-4.17,7.03-5.04,1.22-.35,2.17-1.61,3.28-2.4,2.13-1.53,4.25-3.06,6.45-4.49.56-.36,1.44-.21,2.07-.51.85-.41,1.59-1.03,2.37-1.57.31-.22.58-.67.88-.68,2.19-.07,3.75-1.41,5.59-2.29,3.41-1.64,7.53-1.8,10.98-3.4,3.95-1.83,8.76-1.17,11.96-2.99,4.99-2.83,9.85-1.26,14.67-2.12,1.8-.32,3.37-.59,5.18-1.6,2.38-1.32,5.97-.48,9.04-.49.2,0,.64.79.55.92-.29.43-.73.92-1.2,1.03-3.52.86-6.49,2.75-9.5,4.65-1.68,1.06-3.67,1.54-5.46,2.52-2.91,1.58-5.51,3.28-7.98,5.45-1.6,1.4-4.33,1.64-5.69,3.17-3.37,3.78-8.58,4.97-11.67,9.3-1.92,2.7-5.58,4.11-8.22,6.37-2.24,1.92-4.28,4.12-6.17,6.39-1.34,1.62-3.69,2.58-3.49,5.41.05.67-1.79,1.4-2.64,2.22-2.26,2.19-4.51,4.4-6.67,6.68-1,1.06-2.11,2.19-2.6,3.51-1.1,2.89-2.75,5.08-5.24,7.01-1.44,1.12-1.85,3.52-2.86,5.27-1.57,2.72-3.42,5.3-4.85,8.09-1.31,2.55-1.51,6.23-3.48,7.77-3.38,2.64-.55,7.51-4.36,9.49-.13.07-.18.36-.22.56-.92,4.78-1.87,9.56-2.73,14.35-.41,2.31-1.02,4.54-1.68,6.75-1.26,4.18-3.67,7.36-5.7,10.95-1.57,2.77-3.49,4.65-6.35,6-2.59,1.22-4.86,3.11-7.35,4.59-.64.38-1.55.4-2.34.43-1.75.07-3.51-.02-5.26.05-3.53.15-5.89-1.7-7.82-4.4-1.48-2.07-3.66-3.87-4.43-6.16-.85-2.53-.43-5.48-.57-8.25.09,0,.18,0,.27,0Z"/>
    </g>
  </g>
</svg>