<?xml version="1.0" encoding="UTF-8"?>
<svg id="Capa_2" data-name="Capa 2" xmlns="http://www.w3.org/2000/svg" viewBox="0 0 1925 1085">
  <defs>
    <style>
      .cls-1 {
        fill: #affc41;
        stroke: #273f00;
        stroke-width: 5px;
      }

      .cls-1, .cls-2 {
        stroke-miterlimit: 10;
      }

      .cls-3, .cls-2 {
        fill: #fff;
      }

      .cls-3, .cls-4 {
        stroke-width: 0px;
      }

      .cls-2 {
        stroke: #fff;
      }

      .cls-4 {
        fill: #040408;
      }
    </style>
  </defs>
  <g id="Capa_2-2" data-name="Capa 2">
    <g>
      <rect class="cls-4" x="2.32" y="2.5" width="1920" height="1080"/>
      <circle class="cls-3" cx="1850.91" cy="995.16" r="18.76"/>
      <circle class="cls-3" cx="75.42" cy="995.16" r="18.76"/>
      <circle class="cls-3" cx="1854.85" cy="85.37" r="18.76"/>
      <circle class="cls-3" cx="74.45" cy="85.63" r="18.76"/>
      <g>
        <g>
          <path class="cls-1" d="m869.35,359.16h0c0,9.35-7.58,16.93-16.92,16.93h-75.28c-9.35,0-16.92,7.58-16.92,16.92v63.67c0,9.35-7.58,16.92-16.92,16.92h-.01c-9.35,0-16.92-7.58-16.92-16.92v-63.67c0-9.35-7.58-16.92-16.92-16.92h-76.29c-9.35,0-16.92-7.58-16.92-16.92h0c0-9.35,7.58-16.93,16.92-16.93h76.29c9.35,0,16.92-7.58,16.92-16.92v-63.67c0-9.35,7.58-16.92,16.92-16.92h.01c9.35,0,16.92,7.58,16.92,16.92v63.67c0,9.35,7.58,16.92,16.92,16.92h75.28c9.35,0,16.92,7.58,16.92,16.92Z"/>
          <path class="cls-1" d="m1308.99,359.16h0c0,9.35-7.58,16.93-16.92,16.93h-75.28c-9.35,0-16.92,7.58-16.92,16.92v63.67c0,9.35-7.58,16.92-16.92,16.92h-.01c-9.35,0-16.92-7.58-16.92-16.92v-63.67c0-9.35-7.58-16.92-16.92-16.92h-76.29c-9.35,0-16.92-7.58-16.92-16.92h0c0-9.35,7.58-16.93,16.92-16.93h76.29c9.35,0,16.92-7.58,16.92-16.92v-63.67c0-9.35,7.58-16.92,16.92-16.92h.01c9.35,0,16.92,7.58,16.92,16.92v63.67c0,9.35,7.58,16.92,16.92,16.92h75.28c9.35,0,16.92,7.58,16.92,16.92Z"/>
          <path class="cls-1" d="m1090.57,260.53h0c0,8.76-7.1,15.86-15.85,15.86h-76.04c-8.76,0-15.85,7.1-15.85,15.85v64.54c0,8.76-7.1,15.85-15.85,15.85h-5.8c-8.76,0-15.85-7.1-15.85-15.85v-64.54c0-8.76-7.1-15.85-15.85-15.85h-78.19c-8.76,0-15.85-7.1-15.85-15.85h0c0-8.76,7.1-15.86,15.85-15.86h223.45c8.76,0,15.85,7.1,15.85,15.85Z"/>
          <path class="cls-1" d="m649.69,260.53h0c0,8.76-7.1,15.86-15.85,15.86h-76.04c-8.76,0-15.85,7.1-15.85,15.85v64.54c0,8.76-7.1,15.85-15.85,15.85h-5.8c-8.76,0-15.85-7.1-15.85-15.85v-64.54c0-8.76-7.1-15.85-15.85-15.85h-78.19c-8.76,0-15.85-7.1-15.85-15.85h0c0-8.76,7.1-15.86,15.85-15.86h223.45c8.76,0,15.85,7.1,15.85,15.85Z"/>
          <path class="cls-1" d="m1527.33,260.53h0c0,8.76-7.1,15.86-15.85,15.86h-76.04c-8.76,0-15.85,7.1-15.85,15.85v64.54c0,8.76-7.1,15.85-15.85,15.85h-5.8c-8.76,0-15.85-7.1-15.85-15.85v-64.54c0-8.76-7.1-15.85-15.85-15.85h-78.19c-8.76,0-15.85-7.1-15.85-15.85h0c0-8.76,7.1-15.86,15.85-15.86h223.45c8.76,0,15.85,7.1,15.85,15.85Z"/>
          <path class="cls-1" d="m649.69,656.32h0c0,8.76-7.1,15.86-15.85,15.86h-76.04c-8.76,0-15.85,7.1-15.85,15.85v64.54c0,8.76-7.1,15.85-15.85,15.85h-5.8c-8.76,0-15.85-7.1-15.85-15.85v-64.54c0-8.76-7.1-15.85-15.85-15.85h-78.19c-8.76,0-15.85-7.1-15.85-15.85h0c0-8.76,7.1-15.86,15.85-15.86h223.45c8.76,0,15.85,7.1,15.85,15.85Z"/>
          <path class="cls-1" d="m1527.33,656.32h0c0,8.76-7.1,15.86-15.85,15.86h-76.04c-8.76,0-15.85,7.1-15.85,15.85v64.54c0,8.76-7.1,15.85-15.85,15.85h-5.8c-8.76,0-15.85-7.1-15.85-15.85v-64.54c0-8.76-7.1-15.85-15.85-15.85h-78.19c-8.76,0-15.85-7.1-15.85-15.85h0c0-8.76,7.1-15.86,15.85-15.86h223.45c8.76,0,15.85,7.1,15.85,15.85Z"/>
          <path class="cls-1" d="m1090.57,656.32h0c0,8.76-7.1,15.86-15.85,15.86h-76.04c-8.76,0-15.85,7.1-15.85,15.85v64.54c0,8.76-7.1,15.85-15.85,15.85h-5.8c-8.76,0-15.85-7.1-15.85-15.85v-64.54c0-8.76-7.1-15.85-15.85-15.85h-78.19c-8.76,0-15.85-7.1-15.85-15.85h0c0-8.76,7.1-15.86,15.85-15.86h223.45c8.76,0,15.85,7.1,15.85,15.85Z"/>
          <path class="cls-1" d="m649.69,844.65v12.58c0,5.28-4.28,9.57-9.57,9.57h-88.62c-5.28,0-9.57,4.28-9.57,9.57v77.12c0,5.28-4.28,9.57-9.57,9.57h-18.38c-5.28,0-9.57-4.28-9.57-9.57v-77.12c0-5.28-4.28-9.57-9.57-9.57h-90.77c-5.28,0-9.57-4.28-9.57-9.57v-12.58c0-5.28,4.28-9.57,9.57-9.57h236.03c5.28,0,9.57,4.28,9.57,9.57Z"/>
          <path class="cls-1" d="m1527.33,844.65v12.58c0,5.28-4.28,9.57-9.57,9.57h-88.62c-5.28,0-9.57,4.28-9.57,9.57v77.12c0,5.28-4.28,9.57-9.57,9.57h-18.38c-5.28,0-9.57-4.28-9.57-9.57v-77.12c0-5.28-4.28-9.57-9.57-9.57h-90.77c-5.28,0-9.57-4.28-9.57-9.57v-12.58c0-5.28,4.28-9.57,9.57-9.57h236.03c5.28,0,9.57,4.28,9.57,9.57Z"/>
          <path class="cls-1" d="m1090.57,844.65v12.58c0,5.28-4.28,9.57-9.57,9.57h-88.62c-5.28,0-9.57,4.28-9.57,9.57v77.12c0,5.28-4.28,9.57-9.57,9.57h-18.38c-5.28,0-9.57-4.28-9.57-9.57v-77.12c0-5.28-4.28-9.57-9.57-9.57h-90.77c-5.28,0-9.57-4.28-9.57-9.57v-12.58c0-5.28,4.28-9.57,9.57-9.57h236.03c5.28,0,9.57,4.28,9.57,9.57Z"/>
          <path class="cls-1" d="m1054.74,953.47v-12.58c0-5.28,4.28-9.57,9.57-9.57h88.62c5.28,0,9.57-4.28,9.57-9.57v-77.12c0-5.28,4.28-9.57,9.57-9.57h18.38c5.28,0,9.57,4.28,9.57,9.57v77.12c0,5.28,4.28,9.57,9.57,9.57h90.77c5.28,0,9.57,4.28,9.57,9.57v12.58c0,5.28-4.28,9.57-9.57,9.57h-236.03c-5.28,0-9.57-4.28-9.57-9.57Z"/>
          <path class="cls-1" d="m615.1,953.47v-12.58c0-5.28,4.28-9.57,9.57-9.57h88.62c5.28,0,9.57-4.28,9.57-9.57v-77.12c0-5.28,4.28-9.57,9.57-9.57h18.38c5.28,0,9.57,4.28,9.57,9.57v77.12c0,5.28,4.28,9.57,9.57,9.57h90.77c5.28,0,9.57,4.28,9.57,9.57v12.58c0,5.28-4.28,9.57-9.57,9.57h-236.03c-5.28,0-9.57-4.28-9.57-9.57Z"/>
          <path class="cls-1" d="m229.18,944.13l1.92.26c-1.21.38-1.92.35-1.92-.26Z"/>
          <path class="cls-1" d="m233.4,943.46c.68-.32,1.46-.38,2.19-.17h0c-.09.07-.18.15-.26.23-.71.78-1.73,1.2-2.77,1.06l-1.45-.19c.64-.2,1.42-.52,2.3-.93Z"/>
          <path class="cls-1" d="m237.14,943.75l-1.55-.46c1.44-.99,4.31.46,1.55.46Z"/>
          <path class="cls-1" d="m430.09,940.89v12.58c0,5.28-4.28,9.56-9.56,9.56H114.77c-5.29,0-9.57-4.29-9.57-9.57v-12.57c0-5.28,4.28-9.56,9.56-9.56h158.35c5.28,0,9.56-4.28,9.56-9.56v-77.12c0-5.28,4.28-9.56,9.56-9.56h18.38c5.28,0,9.56,4.28,9.56,9.56v77.12c0,5.28,4.28,9.56,9.56,9.56h90.77c5.28,0,9.56,4.28,9.56,9.56Z"/>
          <path class="cls-1" d="m1495.5,940.89v12.58c0,5.28,4.28,9.56,9.56,9.56h305.76c5.28,0,9.56-4.28,9.56-9.56v-12.58c0-5.28-4.28-9.56-9.56-9.56h-158.35c-5.28,0-9.56-4.28-9.56-9.56v-77.12c0-5.28-4.28-9.56-9.56-9.56h-18.38c-5.28,0-9.56,4.28-9.56,9.56v77.12c0,5.28-4.28,9.56-9.56,9.56h-90.77c-5.28,0-9.56,4.28-9.56,9.56Z"/>
          <path class="cls-1" d="m645.52,457.63h0c0,8.53-6.91,15.45-15.44,15.45h-76.98c-8.53,0-15.44,6.91-15.44,15.44v68.89c0,8.53-6.91,15.44-15.44,15.44h-116.4c-8.53,0-15.44-6.91-15.44-15.44h0c0-8.53,6.91-15.45,15.44-15.45h85.51c8.53,0,15.44-6.91,15.44-15.44v-68.89c0-8.53,6.91-15.44,15.44-15.44h107.87c8.53,0,15.44,6.91,15.44,15.44Z"/>
          <path class="cls-1" d="m1278.55,457.63h0c0,8.53,6.91,15.45,15.44,15.45h76.98c8.53,0,15.44,6.91,15.44,15.44v68.89c0,8.53,6.91,15.44,15.44,15.44h116.4c8.53,0,15.44-6.91,15.44-15.44h0c0-8.53-6.91-15.45-15.44-15.45h-85.51c-8.53,0-15.44-6.91-15.44-15.44v-68.89c0-8.53-6.91-15.44-15.44-15.44h-107.87c-8.53,0-15.44,6.91-15.44,15.44Z"/>
          <path class="cls-1" d="m759.71,555.95v99.79c0,8.53-6.91,15.44-15.44,15.44h0c-8.53,0-15.44-6.91-15.44-15.44v-68.9c0-8.53-6.91-15.44-15.44-15.44h-77.67c-8.53,0-15.44-6.91-15.44-15.44h0c0-8.53,6.91-15.45,15.44-15.45h108.56c8.53,0,15.44,6.91,15.44,15.44Z"/>
          <path class="cls-1" d="m1166.13,555.95v99.79c0,8.53,6.91,15.44,15.44,15.44h0c8.53,0,15.44-6.91,15.44-15.44v-68.9c0-8.53,6.91-15.44,15.44-15.44h77.67c8.53,0,15.44-6.91,15.44-15.44h0c0-8.53-6.91-15.45-15.44-15.45h-108.56c-8.53,0-15.44,6.91-15.44,15.44Z"/>
          <path class="cls-1" d="m210.99,754.34v98.03c0,7.78-6.3,14.08-14.08,14.08h0c-7.78,0-14.08-6.3-14.08-14.08v-69.86c0-7.78-6.3-14.08-14.08-14.08h-49.47c-7.78,0-14.08-6.3-14.08-14.08h0c0-7.79,6.3-14.09,14.08-14.09h77.63c7.78,0,14.08,6.3,14.08,14.08Z"/>
          <path class="cls-1" d="m1714.6,754.34v98.03c0,7.78,6.3,14.08,14.08,14.08h0c7.78,0,14.08-6.3,14.08-14.08v-69.86c0-7.78,6.3-14.08,14.08-14.08h49.47c7.78,0,14.08-6.3,14.08-14.08h0c0-7.79-6.3-14.09-14.08-14.09h-77.63c-7.78,0-14.08,6.3-14.08,14.08Z"/>
          <rect class="cls-1" x="103.53" y="244.68" width="109.14" height="31.75" rx="15.87" ry="15.87"/>
          <rect class="cls-1" x="241.58" y="590.97" width="128.69" height="31.75" rx="15.87" ry="15.87" transform="translate(912.77 300.92) rotate(90)"/>
          <rect class="cls-1" x="1712.93" y="244.68" width="109.14" height="31.75" rx="15.87" ry="15.87"/>
          <rect class="cls-1" x="285.39" y="738.47" width="144.7" height="31.75" rx="15.87" ry="15.87"/>
          <rect class="cls-1" x="1495.5" y="738.47" width="144.7" height="31.75" rx="15.87" ry="15.87"/>
          <rect class="cls-1" x="615.1" y="738.47" width="255.16" height="31.75" rx="15.87" ry="15.87"/>
          <rect class="cls-1" x="1054.85" y="738.47" width="255.16" height="31.75" rx="15.87" ry="15.87"/>
          <rect class="cls-1" x="1559.98" y="590.97" width="128.69" height="31.75" rx="15.87" ry="15.87" transform="translate(2231.17 -1017.48) rotate(90)"/>
          <rect class="cls-1" x="349.87" y="393.39" width="128.69" height="31.75" rx="15.87" ry="15.87" transform="translate(823.48 -4.95) rotate(90)"/>
          <rect class="cls-1" x="1447.03" y="393.39" width="128.69" height="31.75" rx="15.87" ry="15.87" transform="translate(1920.64 -1102.11) rotate(90)"/>
          <rect class="cls-1" x="191.27" y="343.09" width="229.3" height="31.75" rx="15.87" ry="15.87" transform="translate(664.88 53.04) rotate(90)"/>
          <rect class="cls-1" x="1509.68" y="343.09" width="229.3" height="31.75" rx="15.87" ry="15.87" transform="translate(1983.29 -1265.36) rotate(90)"/>
          <rect class="cls-1" x="103.53" y="114.99" width="107.46" height="62.53" rx="12.5" ry="12.5"/>
          <rect class="cls-1" x="290.88" y="114.99" width="139.21" height="62.53" rx="12.5" ry="12.5"/>
          <rect class="cls-1" x="615.1" y="114.99" width="254.25" height="62.53" rx="12.5" ry="12.5"/>
          <rect class="cls-1" x="1714.6" y="114.99" width="107.46" height="62.53" rx="12.5" ry="12.5" transform="translate(3536.67 292.52) rotate(-180)"/>
          <rect class="cls-1" x="1495.5" y="114.99" width="139.21" height="62.53" rx="12.5" ry="12.5" transform="translate(3130.21 292.52) rotate(-180)"/>
          <rect class="cls-1" x="1056.24" y="114.99" width="254.25" height="62.53" rx="12.5" ry="12.5" transform="translate(2366.73 292.52) rotate(-180)"/>
          <path class="cls-1" d="m2.5,2.5v1080h1920V2.5H2.5Zm1888.85,342.14c-.19-.01-.37-.01-.56-.01h-160.05c-8.91,0-16.14,7.22-16.14,16.14v96.41c0,8.91,7.23,16.14,16.14,16.14h160.05c.19,0,.37,0,.56-.01v69c-.19-.01-.37-.01-.56-.01h-160.05c-8.91,0-16.14,7.22-16.14,16.14v96.41c0,8.91,7.23,16.14,16.14,16.14h160.05c.19,0,.37,0,.56-.01v167.71h-59.84c-4.7,0-8.52,3.82-8.52,8.52v12.14c0,4.7,3.82,8.52,8.52,8.52h59.84v169.1H33.65v-169.1h59.84c4.7,0,8.52-3.82,8.52-8.52v-12.14c0-4.7-3.82-8.52-8.52-8.52h-59.84v-167.71c.19.01.37.01.56.01h160.05c8.91,0,16.14-7.23,16.14-16.14v-96.41c0-8.92-7.23-16.14-16.14-16.14H34.21c-.19,0-.37,0-.56.01v-69c.19.01.37.01.56.01h160.05c8.91,0,16.14-7.23,16.14-16.14v-96.41c0-8.92-7.23-16.14-16.14-16.14H34.21c-.19,0-.37,0-.56.01V48.68h474.06v118.27c0,5.47,4.43,9.9,9.9,9.9h16.58c5.47,0,9.9-4.43,9.9-9.9V48.68h401.3v118.27c0,5.47,4.44,9.9,9.9,9.9h16.59c5.46,0,9.89-4.43,9.89-9.9V48.68h403.04v118.27c0,5.47,4.43,9.9,9.89,9.9h16.59c5.46,0,9.9-4.43,9.9-9.9V48.68h470.16v295.96Z"/>
        </g>
        <g>
          <rect class="cls-2" x="919.88" y="447.33" width="87.92" height="7.07" rx="3.54" ry="3.54"/>
          <path class="cls-1" d="m1089.9,445.58v125.54c0,1.26-1.02,2.27-2.27,2.27h-250.62c-1.26,0-2.27-1.02-2.27-2.27v-125.56c0-1.26,1.02-2.27,2.27-2.27h86.66c1.26,0,2.27,1.02,2.27,2.27v10.36c0,1.26-1.02,2.27-2.27,2.27h-71.75c-1.26,0-2.27,1.02-2.27,2.27v95.76c0,1.26,1.02,2.27,2.27,2.27h220.8c1.26,0,2.27-1.02,2.27-2.27v-95.78c0-1.26-1.02-2.27-2.27-2.27h-71.5c-1.26,0-2.27-1.02-2.27-2.27v-10.32c0-1.26,1.02-2.27,2.27-2.27h86.41c1.26,0,2.27,1.02,2.27,2.27Z"/>
        </g>
      </g>
    </g>
  </g>
</svg>